<svg width="32" height="32" viewBox="0 0 32 32" fill="none" xmlns="http://www.w3.org/2000/svg"><g clip-path="url(#clip0_1_4)"><path d="M18.6667 0C20.4348 0 22.1305 0.702379 23.3807 1.95262C24.631 3.20286 25.3333 4.89856 25.3333 6.66667V22.6667C25.3333 23.8923 25.0919 25.106 24.6229 26.2384C24.1538 27.3708 23.4663 28.3997 22.5997 29.2663C21.733 30.133 20.7041 30.8205 19.5717 31.2895C18.4393 31.7586 17.2257 32 16 32C14.7743 32 13.5607 31.7586 12.4283 31.2895C11.2959 30.8205 10.267 30.133 9.40034 29.2663C8.53366 28.3997 7.84617 27.3708 7.37712 26.2384C6.90808 25.106 6.66667 23.8923 6.66667 22.6667V12H9.33333V22.6667C9.33333 24.4348 10.0357 26.1305 11.286 27.3807C12.5362 28.631 14.2319 29.3333 16 29.3333C17.7681 29.3333 19.4638 28.631 20.714 27.3807C21.9643 26.1305 22.6667 24.4348 22.6667 22.6667V6.66667C22.6667 6.14138 22.5632 5.62124 22.3622 5.13593C22.1612 4.65063 21.8665 4.20967 21.4951 3.83824C21.1237 3.46681 20.6827 3.17217 20.1974 2.97115C19.7121 2.77013 19.192 2.66667 18.6667 2.66667C18.1414 2.66667 17.6212 2.77013 17.1359 2.97115C16.6506 3.17217 16.2097 3.46681 15.8382 3.83824C15.4668 4.20967 15.1722 4.65063 14.9711 5.13593C14.7701 5.62124 14.6667 6.14138 14.6667 6.66667V22.6667C14.6667 23.0203 14.8071 23.3594 15.0572 23.6095C15.3072 23.8595 15.6464 24 16 24C16.3536 24 16.6928 23.8595 16.9428 23.6095C17.1929 23.3594 17.3333 23.0203 17.3333 22.6667V8H20V22.6667C20 23.7275 19.5786 24.7449 18.8284 25.4951C18.0783 26.2452 17.0609 26.6667 16 26.6667C14.9391 26.6667 13.9217 26.2452 13.1716 25.4951C12.4214 24.7449 12 23.7275 12 22.6667V6.66667C12 4.89856 12.7024 3.20286 13.9526 1.95262C15.2029 0.702379 16.8986 0 18.6667 0Z" fill="black"/><path d="M5.35904 7.47846L3.11942 5.23963L2 6.35904L5.35904 9.71808L10.9561 4.12021L9.8375 3L5.35904 7.47846Z" fill="black"/></g><defs><clipPath id="clip0_1_4"><rect width="32" height="32" fill="white"/></clipPath></defs></svg>